HIERARCHY
ROOT Hips
{
 OFFSET 0.000000 0.000000 0.000000
 CHANNELS 6 Xposition Yposition Zposition Yrotation Xrotation Zrotation
 JOINT Chest
 {
  OFFSET 0.000000 9.581000 -0.001100
  CHANNELS 3 Yrotation Xrotation Zrotation
  JOINT Chest2
  {
   OFFSET 0.000000 9.561100 0.002200
   CHANNELS 3 Yrotation Xrotation Zrotation
   JOINT Chest3
   {
    OFFSET 0.000000 9.521100 0.000000
    CHANNELS 3 Yrotation Xrotation Zrotation
    JOINT Chest4
    {
     OFFSET 0.000000 9.511400 0.000000
     CHANNELS 3 Yrotation Xrotation Zrotation
     JOINT Neck
     {
      OFFSET 0.000000 14.375100 0.000000
      CHANNELS 3 Yrotation Xrotation Zrotation
      JOINT Head
      {
       OFFSET 0.000000 8.901200 0.004600
       CHANNELS 3 Yrotation Xrotation Zrotation
       End Site
       {
        OFFSET 0.000000 16.962200 0.002400
       }
      }
     }
     JOINT RightCollar
     {
      OFFSET -2.920100 9.518800 0.000000
      CHANNELS 3 Yrotation Xrotation Zrotation
      JOINT RightShoulder
      {
       OFFSET -13.664500 0.000000 0.000000
       CHANNELS 3 Yrotation Xrotation Zrotation
       JOINT RightElbow
       {
        OFFSET 0.000000 -29.999200 0.000000
        CHANNELS 3 Yrotation Xrotation Zrotation
        JOINT RightWrist
        {
         OFFSET 0.000000 -24.253600 0.000000
         CHANNELS 3 Yrotation Xrotation Zrotation
         End Site
         {
          OFFSET 0.000000 -17.918900 0.000000
         }
        }
       }
      }
     }
     JOINT LeftCollar
     {
      OFFSET 2.920100 9.518800 0.000000
      CHANNELS 3 Yrotation Xrotation Zrotation
      JOINT LeftShoulder
      {
       OFFSET 13.664500 0.000000 0.000000
       CHANNELS 3 Yrotation Xrotation Zrotation
       JOINT LeftElbow
       {
        OFFSET 0.000000 -29.999200 0.000000
        CHANNELS 3 Yrotation Xrotation Zrotation
        JOINT LeftWrist
        {
         OFFSET 0.000000 -24.253600 0.000000
         CHANNELS 3 Yrotation Xrotation Zrotation
         End Site
         {
          OFFSET 0.000000 -17.918900 0.000000
         }
        }
       }
      }
     }
    }
   }
  }
 }
 JOINT RightHip
 {
  OFFSET -7.797300 0.005300 0.000500
  CHANNELS 3 Yrotation Xrotation Zrotation
  JOINT RightKnee
  {
   OFFSET 0.000000 -40.663400 -0.000500
   CHANNELS 3 Yrotation Xrotation Zrotation
   JOINT RightAnkle
   {
    OFFSET 0.000000 -39.523700 -0.000900
    CHANNELS 3 Yrotation Xrotation Zrotation
    JOINT RightToe
    {
     OFFSET 0.000000 -6.418000 14.485300
     CHANNELS 3 Yrotation Xrotation Zrotation
     End Site
     {
      OFFSET 0.000000 -1.465200 6.326400
     }
    }
   }
  }
 }
 JOINT LeftHip
 {
  OFFSET 7.797300 0.005300 0.000500
  CHANNELS 3 Yrotation Xrotation Zrotation
  JOINT LeftKnee
  {
   OFFSET 0.000000 -40.663400 -0.000500
   CHANNELS 3 Yrotation Xrotation Zrotation
   JOINT LeftAnkle
   {
    OFFSET 0.000000 -39.523700 -0.000900
    CHANNELS 3 Yrotation Xrotation Zrotation
    JOINT LeftToe
    {
     OFFSET 0.000000 -6.418000 14.485300
     CHANNELS 3 Yrotation Xrotation Zrotation
     End Site
     {
      OFFSET 0.000000 -1.465200 6.326400
     }
    }
   }
  }
 }
}
MOTION
Frames: 15
Frame Time: 0.008333
0.000000 86.422400 0.000000 0.000000 -5.767877 0.000000 0.000000 11.653817 0.000000 0.000000 -5.885947 0.000000 0.000000 -0.000000 0.000000 0.000000 -0.000000 0.000000 0.000000 12.528835 0.000000 0.000000 0.711642 0.000000 0.000000 -0.000000 0.000000 0.000000 0.000000 -90.000000 0.000000 -2.309062 0.000000 0.000000 2.309062 0.000000 0.000000 -0.000000 0.000000 0.000000 -0.000000 90.000000 0.000000 -2.309062 0.000000 0.000000 2.309062 0.000000 0.000000 8.520406 0.000000 0.000000 1.905762 0.000000 -0.000000 -4.658285 0.000000 0.000000 -0.000000 0.000000 0.000000 8.520406 0.000000 0.000000 1.905762 0.000000 -0.000000 -4.658285 0.000000 0.000000 -0.000000 0.000000
-14.464141 126.913761 24.878813 -168.225921 -47.448254 -2.701337 -1.563801 25.216443 -2.486962 -0.174391 4.038852 -0.339683 -0.280502 6.453152 -0.571106 -1.205997 20.852063 -1.968373 -8.709718 11.596698 7.647060 -11.898807 -13.099673 10.941495 -0.312756 2.835461 0.495518 -4.089556 -0.977284 -5.360567 -106.783787 -59.099973 155.293075 -2.631560 -24.226629 -29.921966 -7.729148 1.209112 1.145063 8.370906 -17.825798 6.913995 69.648233 -41.800457 -116.947065 10.369175 -3.034613 -16.116630 -5.242035 -25.072838 -5.370652 -5.093700 78.613384 -4.320499 10.597011 -14.428080 2.289868 0.002380 -0.004099 0.001055 6.094900 4.770413 1.584376 128.416367 65.548124 147.859249 6.408542 11.826294 0.365317 0.017429 -0.005062 0.007722
-14.463615 126.908648 24.880697 -168.097805 -47.381875 -2.861282 -1.565388 25.174405 -2.476160 -0.170830 4.031823 -0.342138 -0.285099 6.443583 -0.553672 -1.193954 20.840883 -1.977222 -8.823192 11.701005 8.101347 -12.177455 -12.948003 11.524920 -0.338500 2.873226 0.479863 -4.301751 -1.022597 -5.220194 -107.719208 -58.884569 155.856126 -2.629222 -24.212900 -29.755995 -7.727179 1.168013 1.155961 8.584144 -18.032656 6.929432 70.121088 -41.919159 -117.487621 10.322738 -3.009490 -16.385361 -5.337791 -25.114068 -5.305070 -5.046912 78.601784 -4.262794 10.599188 -14.418030 2.297416 0.002021 -0.006988 0.000895 6.024891 4.709534 1.641852 128.457559 65.535569 147.916736 6.400123 11.766272 0.399287 0.015909 -0.006457 0.007048
-14.469197 126.907014 24.879910 -168.031363 -47.345116 -2.955095 -1.570636 25.148848 -2.450123 -0.157594 4.034824 -0.372271 -0.292213 6.434191 -0.523960 -1.189206 20.835589 -1.980229 -8.942221 11.777517 8.476730 -12.442907 -12.818378 12.056771 -0.360408 2.905498 0.436280 -4.485628 -1.112359 -5.130920 -108.567033 -58.664637 156.366736 -2.631632 -24.219949 -29.630277 -7.726620 1.146087 1.160758 8.793927 -18.250483 6.915292 70.663976 -42.142012 -118.036962 10.192067 -2.961105 -16.594462 -5.351599 -25.126588 -5.287885 -5.007033 78.592018 -4.182180 10.606913 -14.412532 2.301417 0.002713 -0.007101 0.001202 5.998019 4.680486 1.680772 128.503548 65.525776 147.980470 6.391683 11.720141 0.403259 0.022292 -0.008295 0.009876
-14.477249 126.907348 24.877545 -167.979531 -47.324829 -3.035131 -1.553353 25.152338 -2.459387 -0.171647 4.021213 -0.331247 -0.289586 6.429671 -0.526721 -1.186477 20.830802 -1.981589 -9.059635 11.844608 8.822294 -12.693603 -12.707515 12.534128 -0.379807 2.940446 0.411735 -4.645910 -1.246468 -5.089129 -109.319872 -58.441984 156.819860 -2.634395 -24.252589 -29.536155 -7.726131 1.120669 1.164381 8.966970 -18.446271 6.924142 71.283495 -42.451390 -118.597724 10.013071 -2.902811 -16.760873 -5.291745 -25.113523 -5.308698 -4.989739 78.578427 -4.068942 10.622970 -14.402810 2.300814 0.002939 -0.001506 0.001302 6.025419 4.695167 1.691894 128.423685 65.514472 147.956414 6.417686 11.682872 0.378051 0.009598 0.004838 0.004253
-14.485583 126.906702 24.876233 -167.921380 -47.297391 -3.123714 -1.546918 25.148373 -2.457529 -0.181087 4.008785 -0.297970 -0.276572 6.433555 -0.583475 -1.184359 20.817388 -1.972316 -9.154024 11.913610 9.186981 -12.926639 -12.610366 12.956841 -0.375203 2.962087 0.466144 -4.800819 -1.402973 -5.098238 -109.983337 -58.225327 157.228840 -2.629106 -24.307417 -29.475665 -7.736098 1.066247 1.191199 9.096135 -18.588241 6.988099 71.979670 -42.834767 -119.161081 9.807562 -2.845632 -16.885235 -5.299684 -25.114338 -5.289354 -4.993653 78.568030 -4.040037 10.621670 -14.405871 2.317564 0.002681 -0.001103 0.001188 6.016036 4.683269 1.710599 128.423773 65.499886 147.983982 6.429738 11.654738 0.367087 0.007129 0.007043 0.003159
-14.494190 126.905929 24.875353 -167.854401 -47.270846 -3.221122 -1.553379 25.139384 -2.436009 -0.172424 4.013918 -0.328550 -0.289262 6.417347 -0.520843 -1.193934 20.813711 -1.976325 -9.255067 11.963932 9.460672 -13.139308 -12.524678 13.327617 -0.373528 2.981619 0.456018 -4.944724 -1.586504 -5.116069 -110.576461 -58.025459 157.612225 -2.620046 -24.374149 -29.444067 -7.752687 1.007369 1.170632 9.166899 -18.708071 7.060070 72.747231 -43.279474 -119.720143 9.584370 -2.781789 -16.969312 -5.315455 -25.113154 -5.266488 -4.997186 78.558817 -4.007618 10.601186 -14.411698 2.327010 0.002083 -0.001216 0.000923 5.998348 4.670441 1.727589 128.430185 65.482170 148.016250 6.438145 11.620572 0.376873 0.006388 0.006583 0.002831
-14.501811 126.905174 24.874719 -167.785199 -47.247081 -3.328089 -1.566600 25.126272 -2.388143 -0.172759 4.015348 -0.338018 -0.284380 6.414318 -0.524267 -1.207127 20.807811 -1.938295 -9.346389 12.006742 9.696007 -13.328319 -12.450173 13.649137 -0.385700 3.029900 0.423998 -5.054895 -1.819276 -5.127317 -111.118308 -57.853227 157.977715 -2.610068 -24.442335 -29.432104 -7.798169 0.876731 1.141253 9.187334 -18.726675 7.161488 73.576610 -43.768534 -120.268563 9.352483 -2.702591 -17.026545 -5.334995 -25.110187 -5.233424 -5.024902 78.548676 -4.016354 10.622057 -14.414027 2.336130 0.000864 -0.001613 0.000383 5.966612 4.651871 1.764021 128.484203 65.469719 148.086426 6.438360 11.591266 0.388623 0.016194 0.003258 0.007175
-14.508532 126.904623 24.874238 -167.725681 -47.228617 -3.433847 -1.571992 25.117393 -2.332384 -0.176616 4.016398 -0.345487 -0.282316 6.410917 -0.520004 -1.223932 20.804767 -1.898409 -9.426046 12.042401 9.895438 -13.491826 -12.386783 13.923267 -0.386065 3.080015 0.397331 -5.148463 -2.070243 -5.150805 -111.631972 -57.716692 158.336532 -2.598331 -24.500489 -29.424565 -7.834116 0.776221 1.118834 9.129462 -18.746263 7.259015 74.448618 -44.278384 -120.795037 9.114728 -2.607933 -17.071608 -5.349059 -25.100741 -5.204155 -4.986331 78.534853 -3.941590 10.626677 -14.413224 2.347978 0.001843 -0.002551 0.000816 5.941965 4.637064 1.805543 128.535009 65.459043 148.155152 6.434412 11.567732 0.411047 0.026916 -0.001168 0.011925
-14.515340 126.904404 24.873951 -167.675723 -47.217011 -3.531258 -1.578619 25.121439 -2.307354 -0.174865 4.005874 -0.308344 -0.292337 6.411538 -0.525662 -1.235927 20.802223 -1.857637 -9.493524 12.072155 10.061579 -13.629819 -12.333211 14.152688 -0.372300 3.129703 0.383017 -5.220624 -2.327415 -5.183242 -112.136817 -57.616602 158.694877 -2.589392 -24.539676 -29.406540 -7.861159 0.696543 1.093510 8.998752 -18.762907 7.363629 75.338482 -44.789216 -121.294183 8.871560 -2.501066 -17.108716 -5.354488 -25.085829 -5.184240 -4.918277 78.521537 -3.830271 10.637493 -14.410402 2.353708 0.004593 -0.003103 0.002035 5.936171 4.633252 1.830638 128.534696 65.441448 148.182513 6.449096 11.554956 0.420912 0.027463 -0.000929 0.012168
-14.521815 126.904084 24.874193 -167.634520 -47.208591 -3.621697 -1.578714 25.117969 -2.246001 -0.179011 4.009288 -0.317386 -0.322272 6.406272 -0.514968 -1.223881 20.799752 -1.831021 -9.553343 12.099804 10.211014 -13.739220 -12.285892 14.340191 -0.335432 3.210102 0.450938 -5.278435 -2.622119 -5.269349 -112.633336 -57.553653 159.045666 -2.582437 -24.561373 -29.373023 -7.893548 0.621950 1.081976 8.822395 -18.763077 7.471537 76.214856 -45.286749 -121.765450 8.627581 -2.380951 -17.137839 -5.353328 -25.070243 -5.154564 -4.922752 78.508390 -3.796467 10.621391 -14.405672 2.356051 0.002587 -0.003381 0.001146 5.934710 4.627620 1.855688 128.538613 65.422764 148.210308 6.469814 11.553759 0.420029 0.026803 0.000995 0.011876
-14.532273 126.903741 24.875427 -167.618237 -47.206027 -3.666347 -1.588782 25.120168 -2.236408 -0.205882 4.003559 -0.322139 -0.308092 6.403742 -0.492790 -1.238464 20.797430 -1.798850 -9.587991 12.124658 10.321347 -13.818016 -12.244905 14.489442 -0.272133 3.258920 0.496029 -5.305794 -2.881341 -5.332872 -113.116038 -57.529868 159.383282 -2.566800 -24.575159 -29.338628 -7.909677 0.552120 1.061026 8.623725 -18.755825 7.575624 77.033264 -45.757464 -122.201252 8.388382 -2.246694 -17.157383 -5.351065 -25.060287 -5.144138 -4.887197 78.504130 -3.751837 10.596511 -14.408148 2.370106 0.003913 -0.003765 0.001734 5.945972 4.630155 1.845857 128.523907 65.400649 148.214873 6.488267 11.553400 0.429839 0.026147 0.004981 0.011586
-14.542423 126.903133 24.877266 -167.598022 -47.204379 -3.711063 -1.631316 25.115765 -2.257719 -0.189720 4.004532 -0.297625 -0.297952 6.403350 -0.482962 -1.279952 20.794456 -1.758655 -9.597364 12.142653 10.396219 -13.867585 -12.214685 14.605103 -0.195493 3.297274 0.517547 -5.295916 -3.127585 -5.371195 -113.584271 -57.544286 159.707692 -2.543127 -24.585352 -29.318051 -7.899761 0.498879 1.021536 8.402904 -18.764121 7.678362 77.751732 -46.186571 -122.592851 8.155094 -2.102794 -17.162106 -5.311350 -25.042953 -5.162842 -4.830198 78.496464 -3.647743 10.587158 -14.413322 2.380721 0.003760 -0.001596 0.001666 5.952630 4.624432 1.835684 128.503451 65.372565 148.212598 6.501128 11.554595 0.434687 0.026243 0.003757 0.011628
-14.547587 126.902703 24.878658 -167.571994 -47.204990 -3.785218 -1.643922 25.118775 -2.223133 -0.182189 4.003614 -0.285958 -0.302694 6.402169 -0.478537 -1.285918 20.795851 -1.744301 -9.612550 12.160084 10.487542 -13.888756 -12.197816 14.692637 -0.146407 3.338503 0.573880 -5.255795 -3.374027 -5.393807 -114.026443 -57.593218 160.009811 -2.516018 -24.591125 -29.304554 -7.892804 0.479675 1.004629 8.152629 -18.803924 7.782041 78.343814 -46.561978 -122.931700 7.924583 -1.948471 -17.154752 -5.291953 -25.018066 -5.143266 -4.849321 78.481532 -3.630093 10.588992 -14.418999 2.397009 0.001025 -0.000396 0.000454 5.956060 4.616674 1.852679 128.499968 65.348047 148.228915 6.519733 11.557078 0.441316 0.024536 0.000754 0.010871
-14.553548 126.901188 24.881462 -167.529696 -47.198915 -3.859613 -1.671710 25.117780 -2.200836 -0.174287 4.001299 -0.273520 -0.319912 6.402886 -0.473943 -1.280939 20.796095 -1.732015 -9.611568 12.173356 10.559178 -13.881918 -12.194028 14.757336 -0.097850 3.381133 0.623804 -5.187345 -3.615165 -5.401568 -114.417562 -57.669470 160.268646 -2.478729 -24.593377 -29.288073 -7.957152 0.371952 1.014040 7.984612 -18.750046 7.857147 78.802232 -46.884848 -123.211697 7.697536 -1.776441 -17.137343 -5.317828 -25.007365 -5.118258 -4.822463 78.473776 -3.594202 10.575685 -14.425664 2.403516 0.002606 -0.001332 0.001154 5.971000 4.588081 1.829353 128.464177 65.297732 148.239879 6.550102 11.592086 0.461443 0.012400 0.003287 0.005494
